<svg width="936" height="596" viewBox="0 0 936 596" fill="none" xmlns="http://www.w3.org/2000/svg">
<g filter="url(#filter0_d_1_7836)">
<path d="M4 10C4 4.47716 8.47715 0 14 0H922C927.523 0 932 4.47715 932 10V578C932 583.523 927.523 588 922 588H14C8.47715 588 4 583.523 4 578V10Z" fill="#121212"/>
<path d="M4.5 10C4.5 4.7533 8.7533 0.5 14 0.5H922C927.247 0.5 931.5 4.7533 931.5 10V578C931.5 583.247 927.247 587.5 922 587.5H14C8.7533 587.5 4.5 583.247 4.5 578V10Z" stroke="#2B2B2B"/>
</g>
<defs>
<filter id="filter0_d_1_7836" x="0" y="0" width="936" height="596" filterUnits="userSpaceOnUse" color-interpolation-filters="sRGB">
<feFlood flood-opacity="0" result="BackgroundImageFix"/>
<feColorMatrix in="SourceAlpha" type="matrix" values="0 0 0 0 0 0 0 0 0 0 0 0 0 0 0 0 0 0 127 0" result="hardAlpha"/>
<feOffset dy="4"/>
<feGaussianBlur stdDeviation="2"/>
<feComposite in2="hardAlpha" operator="out"/>
<feColorMatrix type="matrix" values="0 0 0 0 0 0 0 0 0 0 0 0 0 0 0 0 0 0 0.25 0"/>
<feBlend mode="normal" in2="BackgroundImageFix" result="effect1_dropShadow_1_7836"/>
<feBlend mode="normal" in="SourceGraphic" in2="effect1_dropShadow_1_7836" result="shape"/>
</filter>
</defs>
</svg>
