<svg width="14" height="14" viewBox="0 0 14 14" fill="none" xmlns="http://www.w3.org/2000/svg">
<g clip-path="url(#clip0_1_7663)">
<mask id="path-1-inside-1_1_7663" fill="white">
<path d="M1.75 1.70623C1.51794 1.70623 1.29538 1.78667 1.13128 1.92985C0.967187 2.07303 0.875 2.26722 0.875 2.46971V11.6315C0.875 11.834 0.967187 12.0282 1.13128 12.1713C1.29538 12.3145 1.51794 12.395 1.75 12.395H12.25C12.4821 12.395 12.7046 12.3145 12.8687 12.1713C13.0328 12.0282 13.125 11.834 13.125 11.6315V2.46971C13.125 2.26722 13.0328 2.07303 12.8687 1.92985C12.7046 1.78667 12.4821 1.70623 12.25 1.70623H8.3125C8.08044 1.70623 7.85788 1.78667 7.69378 1.92985C7.52969 2.07303 7.4375 2.26722 7.4375 2.46971V8.03777L9.75275 6.01684C9.8349 5.94516 9.94632 5.90489 10.0625 5.90489C10.1787 5.90489 10.2901 5.94516 10.3722 6.01684C10.4544 6.08852 10.5006 6.18574 10.5006 6.28711C10.5006 6.38848 10.4544 6.4857 10.3722 6.55738L7.30975 9.22957C7.26911 9.26512 7.22083 9.29332 7.16768 9.31257C7.11453 9.33181 7.05755 9.34172 7 9.34172C6.94245 9.34172 6.88547 9.33181 6.83232 9.31257C6.77917 9.29332 6.73089 9.26512 6.69025 9.22957L3.62775 6.55738C3.58707 6.52189 3.55481 6.47976 3.53279 6.43338C3.51078 6.38701 3.49945 6.33731 3.49945 6.28711C3.49945 6.23692 3.51078 6.18721 3.53279 6.14084C3.55481 6.09447 3.58707 6.05233 3.62775 6.01684C3.66843 5.98135 3.71672 5.95319 3.76986 5.93398C3.82301 5.91478 3.87997 5.90489 3.9375 5.90489C3.99503 5.90489 4.05199 5.91478 4.10514 5.93398C4.15828 5.95319 4.20657 5.98135 4.24725 6.01684L6.5625 8.03777V2.46971C6.5625 2.06473 6.74687 1.67635 7.07506 1.38999C7.40325 1.10362 7.84837 0.942749 8.3125 0.942749L12.25 0.942749C12.7141 0.942749 13.1592 1.10362 13.4874 1.38999C13.8156 1.67635 14 2.06473 14 2.46971V11.6315C14 12.0365 13.8156 12.4248 13.4874 12.7112C13.1592 12.9976 12.7141 13.1584 12.25 13.1584H1.75C1.28587 13.1584 0.840752 12.9976 0.512563 12.7112C0.184375 12.4248 0 12.0365 0 11.6315V2.46971C0 2.06473 0.184375 1.67635 0.512563 1.38999C0.840752 1.10362 1.28587 0.942749 1.75 0.942749L3.9375 0.942749C4.05353 0.942749 4.16481 0.982968 4.24686 1.05456C4.32891 1.12615 4.375 1.22325 4.375 1.32449C4.375 1.42573 4.32891 1.52283 4.24686 1.59442C4.16481 1.66601 4.05353 1.70623 3.9375 1.70623H1.75Z"/>
</mask>
<path d="M1.75 1.70623C1.51794 1.70623 1.29538 1.78667 1.13128 1.92985C0.967187 2.07303 0.875 2.26722 0.875 2.46971V11.6315C0.875 11.834 0.967187 12.0282 1.13128 12.1713C1.29538 12.3145 1.51794 12.395 1.75 12.395H12.25C12.4821 12.395 12.7046 12.3145 12.8687 12.1713C13.0328 12.0282 13.125 11.834 13.125 11.6315V2.46971C13.125 2.26722 13.0328 2.07303 12.8687 1.92985C12.7046 1.78667 12.4821 1.70623 12.25 1.70623H8.3125C8.08044 1.70623 7.85788 1.78667 7.69378 1.92985C7.52969 2.07303 7.4375 2.26722 7.4375 2.46971V8.03777L9.75275 6.01684C9.8349 5.94516 9.94632 5.90489 10.0625 5.90489C10.1787 5.90489 10.2901 5.94516 10.3722 6.01684C10.4544 6.08852 10.5006 6.18574 10.5006 6.28711C10.5006 6.38848 10.4544 6.4857 10.3722 6.55738L7.30975 9.22957C7.26911 9.26512 7.22083 9.29332 7.16768 9.31257C7.11453 9.33181 7.05755 9.34172 7 9.34172C6.94245 9.34172 6.88547 9.33181 6.83232 9.31257C6.77917 9.29332 6.73089 9.26512 6.69025 9.22957L3.62775 6.55738C3.58707 6.52189 3.55481 6.47976 3.53279 6.43338C3.51078 6.38701 3.49945 6.33731 3.49945 6.28711C3.49945 6.23692 3.51078 6.18721 3.53279 6.14084C3.55481 6.09447 3.58707 6.05233 3.62775 6.01684C3.66843 5.98135 3.71672 5.95319 3.76986 5.93398C3.82301 5.91478 3.87997 5.90489 3.9375 5.90489C3.99503 5.90489 4.05199 5.91478 4.10514 5.93398C4.15828 5.95319 4.20657 5.98135 4.24725 6.01684L6.5625 8.03777V2.46971C6.5625 2.06473 6.74687 1.67635 7.07506 1.38999C7.40325 1.10362 7.84837 0.942749 8.3125 0.942749L12.25 0.942749C12.7141 0.942749 13.1592 1.10362 13.4874 1.38999C13.8156 1.67635 14 2.06473 14 2.46971V11.6315C14 12.0365 13.8156 12.4248 13.4874 12.7112C13.1592 12.9976 12.7141 13.1584 12.25 13.1584H1.75C1.28587 13.1584 0.840752 12.9976 0.512563 12.7112C0.184375 12.4248 0 12.0365 0 11.6315V2.46971C0 2.06473 0.184375 1.67635 0.512563 1.38999C0.840752 1.10362 1.28587 0.942749 1.75 0.942749L3.9375 0.942749C4.05353 0.942749 4.16481 0.982968 4.24686 1.05456C4.32891 1.12615 4.375 1.22325 4.375 1.32449C4.375 1.42573 4.32891 1.52283 4.24686 1.59442C4.16481 1.66601 4.05353 1.70623 3.9375 1.70623H1.75Z" fill="white"/>
<path d="M1.75 1.70623V-20.2938V1.70623ZM0.875 2.46971H-21.125H0.875ZM0.875 11.6315H-21.125H0.875ZM12.25 1.70623V-20.2938V1.70623ZM8.3125 1.70623V-20.2938V1.70623ZM7.4375 8.03777H-14.5625V56.4433L21.9047 24.6119L7.4375 8.03777ZM9.75275 6.01684L-4.71133 -10.56L-4.71443 -10.5573L9.75275 6.01684ZM10.0625 5.90489V-16.0951V5.90489ZM10.5006 6.28711H32.5006H10.5006ZM10.3722 6.55738L-4.09183 -10.0194L-4.09183 -10.0194L10.3722 6.55738ZM7.30975 9.22957L-7.15433 -7.34724L-7.16471 -7.33818L-7.17508 -7.32911L7.30975 9.22957ZM6.69025 9.22957L21.1751 -7.32911L21.1647 -7.33818L21.1543 -7.34724L6.69025 9.22957ZM3.62775 6.55738L18.0918 -10.0194L3.62775 6.55738ZM3.49945 6.28711L-18.5006 6.28711L3.49945 6.28711ZM3.9375 5.90489L3.9375 27.9049L3.9375 5.90489ZM4.24725 6.01684L18.7144 -10.5573L18.7113 -10.56L4.24725 6.01684ZM6.5625 8.03777L-7.90468 24.6119L28.5625 56.4433V8.03777H6.5625ZM8.3125 0.942749V-21.0573V0.942749ZM0 11.6315H-22H0ZM0 2.46971H-22H0ZM1.75 0.942749V-21.0573V0.942749ZM3.9375 1.70623V23.7062V1.70623ZM1.75 -20.2938C-3.42153 -20.2938 -8.88476 -18.5281 -13.3328 -14.647L15.5954 18.5067C11.4755 22.1014 6.4574 23.7062 1.75 23.7062V-20.2938ZM-13.3328 -14.647C-17.8762 -10.6826 -21.125 -4.61062 -21.125 2.46971L22.875 2.46971C22.875 9.14507 19.8106 14.8286 15.5954 18.5067L-13.3328 -14.647ZM-21.125 2.46971V11.6315H22.875V2.46971H-21.125ZM-21.125 11.6315C-21.125 18.7118 -17.8762 24.7838 -13.3328 28.7481L15.5954 -4.40547C19.8106 -0.727476 22.875 4.9561 22.875 11.6315H-21.125ZM-13.3328 28.7481C-8.88479 32.6292 -3.42156 34.395 1.75 34.395V-9.60504C6.45743 -9.60504 11.4755 -8.00021 15.5954 -4.40547L-13.3328 28.7481ZM1.75 34.395H12.25V-9.60504H1.75V34.395ZM12.25 34.395C17.4216 34.395 22.8848 32.6292 27.3328 28.7481L-1.59536 -4.40547C2.52446 -8.00021 7.54256 -9.60504 12.25 -9.60504V34.395ZM27.3328 28.7481C31.8762 24.7838 35.125 18.7119 35.125 11.6315H-8.875C-8.875 4.95608 -5.81057 -0.727493 -1.59536 -4.40547L27.3328 28.7481ZM35.125 11.6315V2.46971H-8.875V11.6315H35.125ZM35.125 2.46971C35.125 -4.61065 31.8762 -10.6826 27.3328 -14.647L-1.59536 18.5067C-5.81058 14.8287 -8.875 9.14509 -8.875 2.46971H35.125ZM27.3328 -14.647C22.8848 -18.5281 17.4215 -20.2938 12.25 -20.2938V23.7062C7.54259 23.7062 2.52448 22.1014 -1.59536 18.5067L27.3328 -14.647ZM12.25 -20.2938H8.3125V23.7062H12.25V-20.2938ZM8.3125 -20.2938C3.14096 -20.2938 -2.32227 -18.5281 -6.77029 -14.647L22.1579 18.5067C18.038 22.1014 13.0199 23.7062 8.3125 23.7062V-20.2938ZM-6.77029 -14.647C-11.3137 -10.6826 -14.5625 -4.61065 -14.5625 2.46971H29.4375C29.4375 9.14509 26.3731 14.8287 22.1579 18.5067L-6.77029 -14.647ZM-14.5625 2.46971V8.03777H29.4375V2.46971H-14.5625ZM21.9047 24.6119L24.2199 22.5909L-4.71443 -10.5573L-7.02968 -8.53633L21.9047 24.6119ZM24.2168 22.5936C20.0151 26.2599 14.8859 27.9049 10.0625 27.9049V-16.0951C5.00678 -16.0951 -0.345289 -14.3695 -4.71133 -10.56L24.2168 22.5936ZM10.0625 27.9049C5.23914 27.9049 0.109908 26.2599 -4.09183 22.5936L24.8363 -10.56C20.4703 -14.3695 15.1182 -16.0951 10.0625 -16.0951V27.9049ZM-4.09183 22.5936C-8.38901 18.8441 -11.4994 13.0636 -11.4994 6.28711H32.5006C32.5006 -0.692113 29.2978 -6.66711 24.8363 -10.56L-4.09183 22.5936ZM-11.4994 6.28711C-11.4994 -0.48937 -8.389 -6.26992 -4.09183 -10.0194L24.8363 23.1342C29.2978 19.2413 32.5006 13.2663 32.5006 6.28711H-11.4994ZM-4.09183 -10.0194L-7.15433 -7.34724L21.7738 25.8064L24.8363 23.1342L-4.09183 -10.0194ZM-7.17508 -7.32911C-5.06468 -9.1752 -2.7142 -10.5072 -0.322006 -11.3733L14.6574 29.9984C17.1559 29.0938 19.6029 27.7054 21.7946 25.7882L-7.17508 -7.32911ZM-0.322006 -11.3733C2.06987 -12.2393 4.55049 -12.6583 7 -12.6583V31.3417C9.5646 31.3417 12.1592 30.9029 14.6574 29.9984L-0.322006 -11.3733ZM7 -12.6583C9.44949 -12.6583 11.9301 -12.2393 14.322 -11.3733L-0.657364 29.9984C1.84084 30.9029 4.43542 31.3417 7 31.3417V-12.6583ZM14.322 -11.3733C16.7143 -10.5071 19.0647 -9.17516 21.1751 -7.32911L-7.79458 25.7882C-5.60294 27.7054 -3.15593 29.0938 -0.657364 29.9984L14.322 -11.3733ZM21.1543 -7.34724L18.0918 -10.0194L-10.8363 23.1342L-7.77383 25.8064L21.1543 -7.34724ZM18.0918 -10.0194C20.2056 -8.17501 22.0683 -5.82153 23.4071 -3.00127L-16.3415 15.868C-14.9586 18.781 -13.0315 21.2188 -10.8363 23.1342L18.0918 -10.0194ZM23.4071 -3.00127C24.7519 -0.168392 25.4994 2.99812 25.4994 6.28711L-18.5006 6.28711C-18.5006 9.67649 -17.7303 12.9424 -16.3415 15.868L23.4071 -3.00127ZM25.4994 6.28711C25.4994 9.57611 24.7519 12.7426 23.4071 15.5755L-16.3415 -3.29381C-17.7303 -0.368187 -18.5006 2.89773 -18.5006 6.28711L25.4994 6.28711ZM23.4071 15.5755C22.0683 18.3958 20.2056 20.7492 18.0918 22.5936L-10.8363 -10.56C-13.0315 -8.64457 -14.9586 -6.20682 -16.3415 -3.29381L23.4071 15.5755ZM18.0918 22.5936C15.9835 24.4333 13.6364 25.7608 11.2477 26.6241L-3.708 -14.7561C-6.20301 -13.8544 -8.64663 -12.4706 -10.8363 -10.56L18.0918 22.5936ZM11.2477 26.6241C8.85951 27.4873 6.38302 27.9049 3.9375 27.9049L3.9375 -16.0951C1.37693 -16.0951 -1.21349 -15.6577 -3.708 -14.7561L11.2477 26.6241ZM3.9375 27.9049C1.49199 27.9049 -0.9845 27.4873 -3.37273 26.6241L11.583 -14.7561C9.08848 -15.6577 6.49806 -16.0951 3.9375 -16.0951L3.9375 27.9049ZM-3.37273 26.6241C-5.76148 25.7608 -8.10851 24.4333 -10.2168 22.5936L18.7113 -10.56C16.5217 -12.4706 14.078 -13.8544 11.583 -14.7561L-3.37273 26.6241ZM-10.2199 22.5909L-7.90468 24.6119L21.0297 -8.53633L18.7144 -10.5573L-10.2199 22.5909ZM28.5625 8.03777V2.46971H-15.4375V8.03777H28.5625ZM28.5625 2.46971C28.5625 8.94261 25.5903 14.432 21.5391 17.9668L-7.38901 -15.1868C-12.0965 -11.0793 -15.4375 -4.81314 -15.4375 2.46971H28.5625ZM21.5391 17.9668C17.5834 21.4184 12.7878 22.9427 8.3125 22.9427V-21.0573C2.9089 -21.0573 -2.77689 -19.2111 -7.38901 -15.1868L21.5391 17.9668ZM8.3125 22.9427H12.25V-21.0573H8.3125V22.9427ZM12.25 22.9427C7.77465 22.9427 2.9791 21.4184 -0.97664 17.9668L27.9515 -15.1868C23.3394 -19.2111 17.6536 -21.0573 12.25 -21.0573V22.9427ZM-0.97664 17.9668C-5.02777 14.432 -8 8.94261 -8 2.46971H36C36 -4.81314 32.659 -11.0793 27.9515 -15.1868L-0.97664 17.9668ZM-8 2.46971V11.6315H36V2.46971H-8ZM-8 11.6315C-8 5.15858 -5.02777 -0.330799 -0.97664 -3.86561L27.9515 29.288C32.659 25.1805 36 18.9143 36 11.6315H-8ZM-0.97664 -3.86561C2.97911 -7.31719 7.77466 -8.84156 12.25 -8.84156V35.1584C17.6536 35.1584 23.3394 33.3123 27.9515 29.288L-0.97664 -3.86561ZM12.25 -8.84156H1.75V35.1584H12.25V-8.84156ZM1.75 -8.84156C6.22534 -8.84156 11.0209 -7.31719 14.9766 -3.86561L-13.9515 29.288C-9.33939 33.3123 -3.65359 35.1584 1.75 35.1584V-8.84156ZM14.9766 -3.86561C19.0278 -0.330786 22 5.1586 22 11.6315H-22C-22 18.9143 -18.659 25.1805 -13.9515 29.288L14.9766 -3.86561ZM22 11.6315V2.46971H-22V11.6315H22ZM22 2.46971C22 8.94259 19.0278 14.432 14.9766 17.9668L-13.9515 -15.1868C-18.659 -11.0793 -22 -4.81312 -22 2.46971L22 2.46971ZM14.9766 17.9668C11.0209 21.4184 6.22534 22.9427 1.75 22.9427V-21.0573C-3.6536 -21.0573 -9.33939 -19.2111 -13.9515 -15.1868L14.9766 17.9668ZM1.75 22.9427H3.9375V-21.0573H1.75V22.9427ZM3.9375 22.9427C-0.885943 22.9427 -6.01533 21.2977 -10.2172 17.6314L18.7109 -15.5222C14.345 -19.3318 8.99301 -21.0573 3.9375 -21.0573V22.9427ZM-10.2172 17.6314C-14.5145 13.8818 -17.625 8.10112 -17.625 1.32449H26.375C26.375 -5.65463 23.1723 -11.6295 18.7109 -15.5222L-10.2172 17.6314ZM-17.625 1.32449C-17.625 -5.45214 -14.5145 -11.2328 -10.2172 -14.9824L18.7109 18.1712C23.1723 14.2785 26.375 8.3036 26.375 1.32449H-17.625ZM-10.2172 -14.9824C-6.01533 -18.6487 -0.885939 -20.2938 3.9375 -20.2938V23.7062C8.993 23.7062 14.345 21.9808 18.7109 18.1712L-10.2172 -14.9824ZM3.9375 -20.2938H1.75V23.7062H3.9375V-20.2938Z" fill="white" mask="url(#path-1-inside-1_1_7663)"/>
</g>
<defs>
<clipPath id="clip0_1_7663">
<rect width="14" height="12.2157" fill="white" transform="translate(0 0.942749)"/>
</clipPath>
</defs>
</svg>
