<svg width="32" height="32" viewBox="0 0 32 32" fill="none" xmlns="http://www.w3.org/2000/svg">
<g clip-path="url(#clip0_1_7194)">
<path fill-rule="evenodd" clip-rule="evenodd" d="M13.828 9.8717C11.3064 10.7654 9.5 13.172 9.5 16.0001C9.5 19.5899 12.4102 22.5001 16 22.5001C18.8282 22.5001 21.2348 20.6936 22.1285 18.1718C21.3293 18.5427 20.4386 18.7499 19.5 18.7499C16.0482 18.7499 13.25 15.9517 13.25 12.4999C13.25 11.5614 13.4572 10.6708 13.828 9.8717ZM8 16.0001C8 11.7827 11.263 8.32807 15.4026 8.02209L16.009 9.27881C15.2268 10.126 14.75 11.2564 14.75 12.4999C14.75 15.1233 16.8766 17.2499 19.5 17.2499C20.7436 17.2499 21.8741 16.773 22.7213 15.9908L23.978 16.5971C23.6722 20.7369 20.2175 24.0001 16 24.0001C11.5817 24.0001 8 20.4184 8 16.0001Z" fill="#FAFAFA"/>
</g>
<defs>
<clipPath id="clip0_1_7194">
<rect width="16" height="16" fill="white" transform="translate(8 8)"/>
</clipPath>
</defs>
</svg>
