<svg width="32" height="32" viewBox="0 0 32 32" fill="none" xmlns="http://www.w3.org/2000/svg">
<path d="M0 16C0 7.16344 7.16344 0 16 0C24.8366 0 32 7.16344 32 16C32 24.8366 24.8366 32 16 32C7.16344 32 0 24.8366 0 16Z" fill="#F2F2F2"/>
<path fill-rule="evenodd" clip-rule="evenodd" d="M8 10C8 9.44772 8.44771 9 9 9H23C23.5523 9 24 9.44772 24 10V18.5C24 19.0523 23.5523 19.5 23 19.5H16.75V22.5H17.75H18.5V24H17.75H14.25H13.5V22.5H14.25H15.25V19.5H9C8.44771 19.5 8 19.0523 8 18.5V10ZM9.5 10.5V18H22.5V10.5H9.5Z" fill="#171717"/>
</svg>
