<svg width="32" height="32" viewBox="0 0 32 32" fill="none" xmlns="http://www.w3.org/2000/svg">
<g clip-path="url(#clip0_1_7197)">
<path fill-rule="evenodd" clip-rule="evenodd" d="M16.75 8.75V8H15.25V8.75V10V10.75H16.75V10V8.75ZM19.182 11.7573L19.7123 11.227L20.0659 10.8734L20.5962 10.3431L21.6569 11.4038L21.1265 11.9341L20.773 12.2877L20.2426 12.818L19.182 11.7573ZM16 18.5C17.3807 18.5 18.5 17.3807 18.5 16C18.5 14.6193 17.3807 13.5 16 13.5C14.6193 13.5 13.5 14.6193 13.5 16C13.5 17.3807 14.6193 18.5 16 18.5ZM16 20C18.2091 20 20 18.2091 20 16C20 13.7909 18.2091 12 16 12C13.7909 12 12 13.7909 12 16C12 18.2091 13.7909 20 16 20ZM21.25 15.25H22H23.25H24V16.75H23.25H22H21.25V15.25ZM8.75 15.25H8V16.75H8.75H10H10.75V15.25H10H8.75ZM10.8735 20.0659L10.3431 20.5962L11.4038 21.6569L11.9341 21.1265L12.2877 20.773L12.818 20.2426L11.7574 19.182L11.227 19.7123L10.8735 20.0659ZM11.7573 12.818L11.227 12.2877L10.8735 11.9341L10.3431 11.4038L11.4038 10.3431L11.9341 10.8734L12.2877 11.227L12.818 11.7573L11.7573 12.818ZM20.0659 21.1265L20.5962 21.6569L21.6569 20.5962L21.1265 20.0659L20.773 19.7123L20.2426 19.182L19.182 20.2426L19.7123 20.773L20.0659 21.1265ZM16.75 21.25V22V23.25V24H15.25V23.25V22V21.25H16.75Z" fill="#FAFAFA"/>
</g>
<defs>
<clipPath id="clip0_1_7197">
<rect width="16" height="16" fill="white" transform="translate(8 8)"/>
</clipPath>
</defs>
</svg>
