<svg width="48" height="48" viewBox="0 0 48 48" fill="none" xmlns="http://www.w3.org/2000/svg">
<g filter="url(#filter0_d_1_7860)">
<circle cx="21" cy="20" r="20" fill="#18181B"/>
<circle cx="21" cy="20" r="19.5" stroke="#2B2B2B"/>
</g>
<path d="M9 31C9 28.6762 10.2116 26.4476 12.3683 24.8044C14.5249 23.1612 17.45 22.2381 20.5 22.2381C23.55 22.2381 26.4751 23.1612 28.6317 24.8044C30.7884 26.4476 32 28.6762 32 31H9ZM20.5 21.1429C15.7347 21.1429 11.875 18.2021 11.875 14.5714C11.875 10.9407 15.7347 8 20.5 8C25.2653 8 29.125 10.9407 29.125 14.5714C29.125 18.2021 25.2653 21.1429 20.5 21.1429Z" fill="url(#paint0_linear_1_7860)"/>
<defs>
<filter id="filter0_d_1_7860" x="0" y="0" width="48" height="48" filterUnits="userSpaceOnUse" color-interpolation-filters="sRGB">
<feFlood flood-opacity="0" result="BackgroundImageFix"/>
<feColorMatrix in="SourceAlpha" type="matrix" values="0 0 0 0 0 0 0 0 0 0 0 0 0 0 0 0 0 0 127 0" result="hardAlpha"/>
<feOffset dx="3" dy="4"/>
<feGaussianBlur stdDeviation="2"/>
<feComposite in2="hardAlpha" operator="out"/>
<feColorMatrix type="matrix" values="0 0 0 0 0.466667 0 0 0 0 0.466667 0 0 0 0 0.466667 0 0 0 1 0"/>
<feBlend mode="normal" in2="BackgroundImageFix" result="effect1_dropShadow_1_7860"/>
<feBlend mode="normal" in="SourceGraphic" in2="effect1_dropShadow_1_7860" result="shape"/>
</filter>
<linearGradient id="paint0_linear_1_7860" x1="9" y1="10.875" x2="19.396" y2="39.5307" gradientUnits="userSpaceOnUse">
<stop stop-color="#08183E"/>
<stop offset="0.335" stop-color="#1A5CFF"/>
<stop offset="0.805" stop-color="#C7CCD8"/>
</linearGradient>
</defs>
</svg>
