<svg width="48" height="48" viewBox="0 0 48 48" fill="none" xmlns="http://www.w3.org/2000/svg">
<g filter="url(#filter0_d_1_7756)">
<circle cx="21" cy="20" r="20" fill="#18181B"/>
<circle cx="21" cy="20" r="19.5" stroke="#2B2B2B"/>
</g>
<path d="M12 30.6578C12 28.5706 12.9482 26.569 14.636 25.0931C16.3239 23.6173 18.6131 22.7882 21 22.7882C23.3869 22.7882 25.6761 23.6173 27.364 25.0931C29.0518 26.569 30 28.5706 30 30.6578H12ZM21 21.8045C17.2706 21.8045 14.25 19.1632 14.25 15.9022C14.25 12.6412 17.2706 10 21 10C24.7294 10 27.75 12.6412 27.75 15.9022C27.75 19.1632 24.7294 21.8045 21 21.8045Z" fill="url(#paint0_linear_1_7756)"/>
<defs>
<filter id="filter0_d_1_7756" x="0" y="0" width="48" height="48" filterUnits="userSpaceOnUse" color-interpolation-filters="sRGB">
<feFlood flood-opacity="0" result="BackgroundImageFix"/>
<feColorMatrix in="SourceAlpha" type="matrix" values="0 0 0 0 0 0 0 0 0 0 0 0 0 0 0 0 0 0 127 0" result="hardAlpha"/>
<feOffset dx="3" dy="4"/>
<feGaussianBlur stdDeviation="2"/>
<feComposite in2="hardAlpha" operator="out"/>
<feColorMatrix type="matrix" values="0 0 0 0 0.466667 0 0 0 0 0.466667 0 0 0 0 0.466667 0 0 0 1 0"/>
<feBlend mode="normal" in2="BackgroundImageFix" result="effect1_dropShadow_1_7756"/>
<feBlend mode="normal" in="SourceGraphic" in2="effect1_dropShadow_1_7756" result="shape"/>
</filter>
<linearGradient id="paint0_linear_1_7756" x1="12" y1="12.5822" x2="22.3349" y2="37.4043" gradientUnits="userSpaceOnUse">
<stop stop-color="#08183E"/>
<stop offset="0.335" stop-color="#1A5CFF"/>
<stop offset="0.805" stop-color="#C7CCD8"/>
</linearGradient>
</defs>
</svg>
