<svg width="49" height="45" viewBox="0 0 49 45" fill="none" xmlns="http://www.w3.org/2000/svg">
<g clip-path="url(#clip0_1_7183)">
<path fill-rule="evenodd" clip-rule="evenodd" d="M23.2474 0C19.6956 0.137506 16.2201 0.997909 13.0683 2.52L23.2474 18.84V0ZM23.2474 26.1645L13.0715 42.48C16.2224 44.0017 19.6967 44.8621 23.2474 45V26.1645ZM25.362 45V26.148L35.5476 42.4785C32.3938 44.0014 28.916 44.8633 25.362 45ZM25.362 18.855V0C29.0257 0.144 32.4803 1.0395 35.5493 2.523L25.362 18.855ZM3.78515 34.6005L21.4213 25.1745L11.2389 41.5005C8.24201 39.7294 5.69837 37.3747 3.78515 34.6005ZM44.8291 10.4025L27.1995 19.824L37.3803 3.504C40.3758 5.275 42.9167 7.62914 44.8291 10.4025ZM3.78353 10.401C5.69679 7.62681 8.24042 5.27213 11.2372 3.501L21.4196 19.827L3.78353 10.401ZM2.72381 12.096C1.07871 15.0155 0.149235 18.235 0.00158691 21.525H20.3648L2.72381 12.096ZM2.72381 32.9055C1.07962 29.9878 0.15018 26.7705 0.00158691 23.4825H20.3567L2.72543 32.9055H2.72381ZM28.2511 21.525H48.6111C48.4632 18.2355 47.5337 15.0166 45.8889 12.0975L28.2511 21.525ZM45.8889 32.904L28.2592 23.484H48.6111C48.462 26.771 47.5326 29.9872 45.8889 32.904ZM27.1995 25.1775L37.377 41.4975C40.3731 39.7266 42.9162 37.3725 44.8291 34.599L27.1995 25.1775Z" fill="#FAFAFA"/>
</g>
<defs>
<clipPath id="clip0_1_7183">
<rect width="48.6111" height="45" fill="white"/>
</clipPath>
</defs>
</svg>
