<svg width="26" height="26" viewBox="0 0 26 26" fill="none" xmlns="http://www.w3.org/2000/svg">
<g clip-path="url(#clip0_1_7978)">
<path d="M25.5533 13.5548C25.5533 12.7025 25.4842 11.8457 25.3368 11.0073H13.5117V15.835H20.2834C20.0024 17.392 19.0995 18.7694 17.7774 19.6447V22.7771H21.8174C24.1898 20.5936 25.5533 17.369 25.5533 13.5548Z" fill="#4285F4"/>
<path d="M13.5128 25.8037C16.894 25.8037 19.7455 24.6935 21.823 22.7771L17.7831 19.6447C16.6591 20.4094 15.208 20.8424 13.5174 20.8424C10.2467 20.8424 7.47355 18.6358 6.47853 15.6692H2.30957V18.8984C4.43781 23.1318 8.7726 25.8037 13.5128 25.8037Z" fill="#34A853"/>
<path d="M6.47305 15.6692C5.9479 14.1121 5.9479 12.4261 6.47305 10.8691V7.63989H2.3087C0.530563 11.1824 0.530563 15.3559 2.3087 18.8984L6.47305 15.6692Z" fill="#FBBC04"/>
<path d="M13.5128 5.69138C15.3001 5.66374 17.0276 6.3363 18.322 7.57086L21.9014 3.99155C19.6349 1.86331 16.6268 0.69324 13.5128 0.730093C8.7726 0.730093 4.43781 3.40191 2.30957 7.63996L6.47392 10.8692C7.46433 7.89793 10.2421 5.69138 13.5128 5.69138Z" fill="#EA4335"/>
</g>
<defs>
<clipPath id="clip0_1_7978">
<rect width="25.0736" height="25.0736" fill="white" transform="translate(0.724609 0.729248)"/>
</clipPath>
</defs>
</svg>
