<svg width="10" height="12" viewBox="0 0 10 12" fill="none" xmlns="http://www.w3.org/2000/svg">
<path d="M4.81553 0C6.09265 0 7.31747 0.482864 8.22053 1.34237C9.1236 2.20187 9.63093 3.36761 9.63093 4.58313C9.63093 6.51979 8.20113 8.63038 5.37856 10.9375C5.22161 11.0658 5.02151 11.1363 4.8146 11.1361C4.6077 11.1359 4.40772 11.0651 4.25101 10.9365L4.06432 10.7823C1.36671 8.53543 0.00012207 6.47655 0.00012207 4.58313C0.00012207 3.36761 0.507458 2.20187 1.41052 1.34237C2.31359 0.482864 3.5384 0 4.81553 0ZM4.81553 0.705097C3.73488 0.705097 2.6985 1.11367 1.93437 1.84095C1.17024 2.56822 0.740954 3.55461 0.740954 4.58313C0.740954 6.22929 1.99938 8.126 4.5508 10.2507L4.73502 10.4025C4.75742 10.4209 4.78599 10.4309 4.81553 10.4309C4.84507 10.4309 4.87363 10.4209 4.89603 10.4025C7.57093 8.21579 8.8901 6.26831 8.8901 4.58313C8.8901 4.07386 8.78471 3.56957 8.57994 3.09907C8.37518 2.62857 8.07505 2.20105 7.69669 1.84095C7.31833 1.48084 6.86915 1.19518 6.3748 1.00029C5.88045 0.805405 5.35061 0.705097 4.81553 0.705097ZM4.81553 2.82039C5.30673 2.82039 5.77781 3.0061 6.12515 3.33668C6.47248 3.66726 6.66761 4.11562 6.66761 4.58313C6.66761 5.05064 6.47248 5.499 6.12515 5.82957C5.77781 6.16015 5.30673 6.34587 4.81553 6.34587C4.32433 6.34587 3.85324 6.16015 3.50591 5.82957C3.15858 5.499 2.96345 5.05064 2.96345 4.58313C2.96345 4.11562 3.15858 3.66726 3.50591 3.33668C3.85324 3.0061 4.32433 2.82039 4.81553 2.82039ZM4.81553 3.52548C4.52081 3.52548 4.23816 3.63691 4.02976 3.83526C3.82136 4.03361 3.70428 4.30262 3.70428 4.58313C3.70428 4.86363 3.82136 5.13265 4.02976 5.331C4.23816 5.52934 4.52081 5.64077 4.81553 5.64077C5.11025 5.64077 5.3929 5.52934 5.6013 5.331C5.8097 5.13265 5.92678 4.86363 5.92678 4.58313C5.92678 4.30262 5.8097 4.03361 5.6013 3.83526C5.3929 3.63691 5.11025 3.52548 4.81553 3.52548Z" fill="#777777"/>
</svg>
