<svg width="26" height="20" viewBox="0 0 26 20" fill="none" xmlns="http://www.w3.org/2000/svg">
<g clip-path="url(#clip0_1_8051)">
<path d="M21.8881 2.03805C20.2438 1.26867 18.5042 0.721997 16.7153 0.412476C16.4925 0.815318 16.2322 1.35714 16.0526 1.78819C14.1239 1.49818 12.2129 1.49818 10.3197 1.78819C10.1403 1.35724 9.87405 0.815318 9.64917 0.412476C7.85856 0.72214 6.11748 1.27021 4.47235 2.04206C1.19868 6.98911 0.31121 11.8131 0.754896 16.5689C2.92621 18.1904 5.03044 19.1754 7.09921 19.8199C7.61335 19.1129 8.06784 18.3644 8.45798 17.582C7.7152 17.2992 6.99913 16.9508 6.3183 16.5407C6.49747 16.4079 6.67242 16.2695 6.84289 16.1257C10.9685 18.0554 15.4512 18.0554 19.5276 16.1257C19.6988 16.2685 19.8737 16.4069 20.0521 16.5407C19.3701 16.9518 18.6527 17.301 17.9085 17.5841C18.3008 18.3696 18.7545 19.1189 19.2673 19.8219C21.338 19.1774 23.4442 18.1924 25.6155 16.5689C26.1362 11.0558 24.7262 6.27608 21.8881 2.03805ZM9.02008 13.6442C7.78158 13.6442 6.7659 12.488 6.7659 11.08C6.7659 9.67208 7.75993 8.5139 9.02008 8.5139C10.2803 8.5139 11.2959 9.67003 11.2743 11.08C11.2762 12.488 10.2803 13.6442 9.02008 13.6442ZM17.3503 13.6442C16.1118 13.6442 15.0962 12.488 15.0962 11.08C15.0962 9.67208 16.0902 8.5139 17.3503 8.5139C18.6105 8.5139 19.6261 9.67003 19.6045 11.08C19.6045 12.488 18.6105 13.6442 17.3503 13.6442Z" fill="#5865F2"/>
</g>
<defs>
<clipPath id="clip0_1_8051">
<rect width="25.0736" height="19.4908" fill="white" transform="translate(0.648926 0.412476)"/>
</clipPath>
</defs>
</svg>
