<svg width="26" height="21" viewBox="0 0 26 21" fill="none" xmlns="http://www.w3.org/2000/svg">
<g clip-path="url(#clip0_1_7987)">
<path d="M21.4409 2.1462C19.7965 1.37683 18.0569 0.830152 16.2681 0.52063C16.0452 0.923473 15.7849 1.4653 15.6054 1.89635C13.6767 1.60634 11.7657 1.60634 9.87243 1.89635C9.693 1.4654 9.42679 0.923473 9.20191 0.52063C7.41129 0.830294 5.67021 1.37836 4.02509 2.15022C0.751413 7.09726 -0.136055 11.9213 0.30763 16.677C2.47895 18.2985 4.58317 19.2835 6.65194 19.9281C7.16608 19.2211 7.62057 18.4725 8.01071 17.6902C7.26793 17.4074 6.55187 17.0589 5.87103 16.6488C6.0502 16.516 6.22515 16.3776 6.39562 16.2339C10.5212 18.1635 15.0039 18.1635 19.0803 16.2339C19.2515 16.3767 19.4264 16.5151 19.6048 16.6488C18.9229 17.06 18.2055 17.4092 17.4612 17.6922C17.8536 18.4777 18.3073 19.227 18.82 19.9301C20.8907 19.2856 22.9969 18.3006 25.1682 16.677C25.6889 11.164 24.2789 6.38423 21.4409 2.1462ZM8.57281 13.7523C7.33431 13.7523 6.31864 12.5961 6.31864 11.1882C6.31864 9.78024 7.31267 8.62205 8.57281 8.62205C9.83306 8.62205 10.8486 9.77818 10.827 11.1882C10.8289 12.5961 9.83306 13.7523 8.57281 13.7523ZM16.903 13.7523C15.6645 13.7523 14.649 12.5961 14.649 11.1882C14.649 9.78024 15.6429 8.62205 16.903 8.62205C18.1633 8.62205 19.1789 9.77818 19.1572 11.1882C19.1572 12.5961 18.1633 13.7523 16.903 13.7523Z" fill="#5865F2"/>
</g>
<defs>
<clipPath id="clip0_1_7987">
<rect width="25.0736" height="19.4908" fill="white" transform="translate(0.20166 0.52063)"/>
</clipPath>
</defs>
</svg>
