<svg width="27" height="26" viewBox="0 0 27 26" fill="none" xmlns="http://www.w3.org/2000/svg">
<path d="M13.5001 2.81873C12.1281 2.81873 10.7696 3.08895 9.50205 3.61398C8.23452 4.13901 7.08281 4.90856 6.11269 5.87868C4.15343 7.83794 3.05273 10.4953 3.05273 13.2661C3.05273 17.8838 6.05112 21.8015 10.1987 23.191C10.7211 23.2746 10.8882 22.9507 10.8882 22.6687V20.9031C7.99433 21.5299 7.37793 19.5031 7.37793 19.5031C6.89735 18.2912 6.21828 17.9674 6.21828 17.9674C5.26757 17.3196 6.29141 17.3405 6.29141 17.3405C7.33614 17.4137 7.88985 18.4166 7.88985 18.4166C8.79877 20.0046 10.3345 19.5345 10.93 19.2837C11.0241 18.6047 11.2957 18.145 11.5882 17.8838C9.2689 17.6226 6.83467 16.7241 6.83467 12.7437C6.83467 11.584 7.23167 10.6542 7.91075 9.91247C7.80627 9.65129 7.44062 8.56476 8.01522 7.15437C8.01522 7.15437 8.8928 6.87229 10.8882 8.22C11.7136 7.99016 12.612 7.87524 13.5001 7.87524C14.3881 7.87524 15.2866 7.99016 16.1119 8.22C18.1073 6.87229 18.9849 7.15437 18.9849 7.15437C19.5595 8.56476 19.1939 9.65129 19.0894 9.91247C19.7685 10.6542 20.1655 11.584 20.1655 12.7437C20.1655 16.7346 17.7208 17.6122 15.391 17.8733C15.7671 18.1972 16.1119 18.8345 16.1119 19.8061V22.6687C16.1119 22.9507 16.2791 23.2851 16.8119 23.191C20.9595 21.7911 23.9474 17.8838 23.9474 13.2661C23.9474 11.8941 23.6772 10.5356 23.1522 9.26804C22.6271 8.00051 21.8576 6.84881 20.8875 5.87868C19.9173 4.90856 18.7656 4.13901 17.4981 3.61398C16.2306 3.08895 14.872 2.81873 13.5001 2.81873Z" fill="white"/>
</svg>
