<svg width="936" height="261" viewBox="0 0 936 261" fill="none" xmlns="http://www.w3.org/2000/svg">
<g filter="url(#filter0_d_1_7806)">
<path d="M4 10C4 4.47715 8.47715 0 14 0H922C927.523 0 932 4.47715 932 10V243C932 248.523 927.523 253 922 253H14C8.47715 253 4 248.523 4 243V10Z" fill="#121212"/>
<path d="M4.5 10C4.5 4.75329 8.75329 0.5 14 0.5H922C927.247 0.5 931.5 4.7533 931.5 10V243C931.5 248.247 927.247 252.5 922 252.5H14C8.7533 252.5 4.5 248.247 4.5 243V10Z" stroke="#2B2B2B"/>
</g>
<defs>
<filter id="filter0_d_1_7806" x="0" y="0" width="936" height="261" filterUnits="userSpaceOnUse" color-interpolation-filters="sRGB">
<feFlood flood-opacity="0" result="BackgroundImageFix"/>
<feColorMatrix in="SourceAlpha" type="matrix" values="0 0 0 0 0 0 0 0 0 0 0 0 0 0 0 0 0 0 127 0" result="hardAlpha"/>
<feOffset dy="4"/>
<feGaussianBlur stdDeviation="2"/>
<feComposite in2="hardAlpha" operator="out"/>
<feColorMatrix type="matrix" values="0 0 0 0 0 0 0 0 0 0 0 0 0 0 0 0 0 0 0.25 0"/>
<feBlend mode="normal" in2="BackgroundImageFix" result="effect1_dropShadow_1_7806"/>
<feBlend mode="normal" in="SourceGraphic" in2="effect1_dropShadow_1_7806" result="shape"/>
</filter>
</defs>
</svg>
