<svg width="840" height="631" viewBox="0 0 840 631" fill="none" xmlns="http://www.w3.org/2000/svg">
<g filter="url(#filter0_d_1_7545)">
<path d="M4 9.99999C4 4.47714 8.47715 0 14 0H826C831.523 0 836 4.47715 836 10V613C836 618.523 831.523 623 826 623H14C8.47714 623 4 618.523 4 613V9.99999Z" fill="#121212"/>
<path d="M4.5 9.99999C4.5 4.75329 8.75329 0.5 14 0.5H826C831.247 0.5 835.5 4.7533 835.5 10V613C835.5 618.247 831.247 622.5 826 622.5H14C8.75328 622.5 4.5 618.247 4.5 613V9.99999Z" stroke="#2B2B2B"/>
</g>
<defs>
<filter id="filter0_d_1_7545" x="0" y="0" width="840" height="631" filterUnits="userSpaceOnUse" color-interpolation-filters="sRGB">
<feFlood flood-opacity="0" result="BackgroundImageFix"/>
<feColorMatrix in="SourceAlpha" type="matrix" values="0 0 0 0 0 0 0 0 0 0 0 0 0 0 0 0 0 0 127 0" result="hardAlpha"/>
<feOffset dy="4"/>
<feGaussianBlur stdDeviation="2"/>
<feComposite in2="hardAlpha" operator="out"/>
<feColorMatrix type="matrix" values="0 0 0 0 0 0 0 0 0 0 0 0 0 0 0 0 0 0 0.25 0"/>
<feBlend mode="normal" in2="BackgroundImageFix" result="effect1_dropShadow_1_7545"/>
<feBlend mode="normal" in="SourceGraphic" in2="effect1_dropShadow_1_7545" result="shape"/>
</filter>
</defs>
</svg>
