<svg width="262" height="320" viewBox="0 0 262 320" fill="none" xmlns="http://www.w3.org/2000/svg">
<g filter="url(#filter0_d_1_7055)">
<path d="M4 9.99999C4 4.47715 8.47715 0 14 0H247.223C252.745 0 257.223 4.47715 257.223 10V302C257.223 307.523 252.745 312 247.223 312H14C8.47715 312 4 307.523 4 302V9.99999Z" fill="#121212"/>
<path d="M4.5 9.99999C4.5 4.75329 8.75329 0.5 14 0.5H247.223C252.469 0.5 256.723 4.7533 256.723 10V302C256.723 307.247 252.469 311.5 247.223 311.5H14C8.75329 311.5 4.5 307.247 4.5 302V9.99999Z" stroke="#2B2B2B"/>
</g>
<defs>
<filter id="filter0_d_1_7055" x="0" y="0" width="261.223" height="320" filterUnits="userSpaceOnUse" color-interpolation-filters="sRGB">
<feFlood flood-opacity="0" result="BackgroundImageFix"/>
<feColorMatrix in="SourceAlpha" type="matrix" values="0 0 0 0 0 0 0 0 0 0 0 0 0 0 0 0 0 0 127 0" result="hardAlpha"/>
<feOffset dy="4"/>
<feGaussianBlur stdDeviation="2"/>
<feComposite in2="hardAlpha" operator="out"/>
<feColorMatrix type="matrix" values="0 0 0 0 0 0 0 0 0 0 0 0 0 0 0 0 0 0 0.25 0"/>
<feBlend mode="normal" in2="BackgroundImageFix" result="effect1_dropShadow_1_7055"/>
<feBlend mode="normal" in="SourceGraphic" in2="effect1_dropShadow_1_7055" result="shape"/>
</filter>
</defs>
</svg>
