<svg width="456" height="441" viewBox="0 0 456 441" fill="none" xmlns="http://www.w3.org/2000/svg">
<g filter="url(#filter0_d_1_7809)">
<path d="M4 10C4 4.47716 8.47715 0 14 0H442C447.523 0 452 4.47715 452 10V423C452 428.523 447.523 433 442 433H14C8.47714 433 4 428.523 4 423V10Z" fill="#121212"/>
<path d="M4.5 10C4.5 4.7533 8.7533 0.5 14 0.5H442C447.247 0.5 451.5 4.75329 451.5 10V423C451.5 428.247 447.247 432.5 442 432.5H14C8.75328 432.5 4.5 428.247 4.5 423V10Z" stroke="#2B2B2B"/>
</g>
<defs>
<filter id="filter0_d_1_7809" x="0" y="0" width="456" height="441" filterUnits="userSpaceOnUse" color-interpolation-filters="sRGB">
<feFlood flood-opacity="0" result="BackgroundImageFix"/>
<feColorMatrix in="SourceAlpha" type="matrix" values="0 0 0 0 0 0 0 0 0 0 0 0 0 0 0 0 0 0 127 0" result="hardAlpha"/>
<feOffset dy="4"/>
<feGaussianBlur stdDeviation="2"/>
<feComposite in2="hardAlpha" operator="out"/>
<feColorMatrix type="matrix" values="0 0 0 0 0 0 0 0 0 0 0 0 0 0 0 0 0 0 0.25 0"/>
<feBlend mode="normal" in2="BackgroundImageFix" result="effect1_dropShadow_1_7809"/>
<feBlend mode="normal" in="SourceGraphic" in2="effect1_dropShadow_1_7809" result="shape"/>
</filter>
</defs>
</svg>
