<svg width="938" height="913" viewBox="0 0 938 913" fill="none" xmlns="http://www.w3.org/2000/svg">
<g filter="url(#filter0_d_1_7813)">
<path d="M4 10C4 4.47717 8.47715 0 14 0H924C929.523 0 934 4.47715 934 10V895C934 900.523 929.523 905 924 905H14C8.47714 905 4 900.523 4 895V10Z" fill="#121212"/>
<path d="M4.5 10C4.5 4.75331 8.7533 0.5 14 0.5H924C929.247 0.5 933.5 4.75329 933.5 10V895C933.5 900.247 929.247 904.5 924 904.5H14C8.75329 904.5 4.5 900.247 4.5 895V10Z" stroke="#2B2B2B"/>
</g>
<defs>
<filter id="filter0_d_1_7813" x="0" y="0" width="938" height="913" filterUnits="userSpaceOnUse" color-interpolation-filters="sRGB">
<feFlood flood-opacity="0" result="BackgroundImageFix"/>
<feColorMatrix in="SourceAlpha" type="matrix" values="0 0 0 0 0 0 0 0 0 0 0 0 0 0 0 0 0 0 127 0" result="hardAlpha"/>
<feOffset dy="4"/>
<feGaussianBlur stdDeviation="2"/>
<feComposite in2="hardAlpha" operator="out"/>
<feColorMatrix type="matrix" values="0 0 0 0 0 0 0 0 0 0 0 0 0 0 0 0 0 0 0.25 0"/>
<feBlend mode="normal" in2="BackgroundImageFix" result="effect1_dropShadow_1_7813"/>
<feBlend mode="normal" in="SourceGraphic" in2="effect1_dropShadow_1_7813" result="shape"/>
</filter>
</defs>
</svg>
