<svg width="347" height="38" viewBox="0 0 347 38" fill="none" xmlns="http://www.w3.org/2000/svg">
<rect x="63.5" y="3.5" width="34" height="34" rx="4.5" fill="#18181B" stroke="#2B2B2B"/>
<rect x="126.5" y="3.5" width="34" height="34" rx="4.5" fill="#18181B" stroke="#2B2B2B"/>
<rect x="189.5" y="0.5" width="34" height="34" rx="4.5" fill="#18181B" stroke="#2B2B2B"/>
<rect x="252.5" y="0.5" width="34" height="34" rx="4.5" fill="#18181B" stroke="#2B2B2B"/>
<path d="M86.4167 10.0833H75.5834C72.5919 10.0833 70.1667 12.4152 70.1667 15.2916V25.7083C70.1667 28.5848 72.5919 30.9166 75.5834 30.9166H86.4167C89.4083 30.9166 91.8334 28.5848 91.8334 25.7083V15.2916C91.8334 12.4152 89.4083 10.0833 86.4167 10.0833Z" stroke="white" stroke-linecap="round" stroke-linejoin="round"/>
<path d="M86.9584 14.7708H86.9693M85.3334 19.8437C85.4671 20.7107 85.3131 21.596 84.8933 22.374C84.4735 23.1519 83.8093 23.7827 82.9952 24.1767C82.181 24.5707 81.2584 24.7079 80.3585 24.5687C79.4586 24.4294 78.6273 24.0209 77.9828 23.4012C77.3383 22.7815 76.9135 21.9821 76.7687 21.1169C76.6239 20.2516 76.7665 19.3645 77.1763 18.5816C77.5861 17.7988 78.2421 17.1601 79.0512 16.7565C79.8602 16.3528 80.781 16.2048 81.6826 16.3333C82.6023 16.4644 83.4537 16.8765 84.1111 17.5086C84.7685 18.1408 85.197 18.9594 85.3334 19.8437Z" stroke="white" stroke-linecap="round" stroke-linejoin="round"/>
<path d="M155.332 14.25C154.497 14.6146 153.598 14.8542 152.667 14.9688C153.62 14.4167 154.357 13.5417 154.703 12.4896C153.804 13.0104 152.807 13.375 151.757 13.5834C150.901 12.6875 149.698 12.1667 148.333 12.1667C145.787 12.1667 143.707 14.1667 143.707 16.6354C143.707 16.9896 143.751 17.3334 143.827 17.6563C139.97 17.4688 136.536 15.6875 134.25 12.9896C133.849 13.6459 133.622 14.4167 133.622 15.2292C133.622 16.7813 134.434 18.1563 135.691 18.9375C134.922 18.9375 134.207 18.7292 133.578 18.4167V18.4479C133.578 20.6146 135.182 22.4271 137.305 22.8334C136.623 23.0127 135.907 23.0377 135.214 22.9063C135.508 23.7943 136.085 24.5713 136.862 25.1281C137.639 25.6849 138.578 25.9935 139.547 26.0104C137.905 27.2609 135.868 27.9368 133.773 27.9271C133.405 27.9271 133.037 27.9063 132.668 27.8646C134.727 29.1354 137.175 29.875 139.797 29.875C148.333 29.875 153.024 23.0625 153.024 17.1563C153.024 16.9584 153.024 16.7709 153.013 16.5729C153.923 15.9479 154.703 15.1563 155.332 14.25Z" fill="white"/>
<path d="M201.518 10.2083C201.518 10.7609 201.29 11.2907 200.883 11.6812C200.476 12.0717 199.925 12.2909 199.351 12.2906C198.776 12.2904 198.225 12.0706 197.819 11.6797C197.413 11.2888 197.185 10.7588 197.185 10.2063C197.185 9.65372 197.414 9.12393 197.82 8.73342C198.227 8.34291 198.778 8.12369 199.353 8.12396C199.927 8.12424 200.478 8.344 200.885 8.73489C201.291 9.12579 201.519 9.6558 201.518 10.2083ZM201.583 13.8333H197.25V26.875H201.583V13.8333ZM208.43 13.8333H204.118V26.875H208.387V20.0313C208.387 16.2188 213.554 15.8646 213.554 20.0313V26.875H217.833V18.6146C217.833 12.1875 210.185 12.4271 208.387 15.5833L208.43 13.8333Z" fill="white"/>
<path d="M267.833 20.625L273.456 17.5L267.833 14.375V20.625ZM280.357 12.4687C280.498 12.9583 280.595 13.6146 280.66 14.4479C280.736 15.2812 280.768 16 280.768 16.625L280.833 17.5C280.833 19.7812 280.66 21.4583 280.357 22.5312C280.086 23.4687 279.458 24.0729 278.483 24.3333C277.973 24.4687 277.042 24.5625 275.612 24.625C274.203 24.6979 272.914 24.7291 271.723 24.7291L270 24.7916C265.461 24.7916 262.633 24.625 261.518 24.3333C260.543 24.0729 259.914 23.4687 259.643 22.5312C259.503 22.0416 259.405 21.3854 259.34 20.5521C259.264 19.7187 259.232 19 259.232 18.375L259.167 17.5C259.167 15.2187 259.34 13.5416 259.643 12.4687C259.914 11.5312 260.543 10.9271 261.518 10.6666C262.027 10.5312 262.958 10.4375 264.388 10.375C265.797 10.3021 267.086 10.2708 268.278 10.2708L270 10.2083C274.539 10.2083 277.367 10.375 278.483 10.6666C279.458 10.9271 280.086 11.5312 280.357 12.4687Z" fill="white"/>
<rect x="0.5" y="3.5" width="34" height="34" rx="4.5" fill="#18181B" stroke="#2B2B2B"/>
<path d="M19.5833 23.4987H22.2917L23.375 18.1078H19.5833V15.4124C19.5833 14.0243 19.5833 12.717 21.75 12.717H23.375V8.18868C23.0218 8.13073 21.6882 8 20.2799 8C17.3387 8 15.25 10.2332 15.25 14.3342V18.1078H12V23.4987H15.25V34.9542H19.5833V23.4987Z" fill="white"/>
<rect x="312.5" y="0.5" width="34" height="34" rx="4.5" fill="#18181B" stroke="#2B2B2B"/>
<g clip-path="url(#clip0_1_7781)">
<path d="M330 6.27502C323.915 6.27502 319 11.1905 319 17.275C319 22.1213 322.163 26.2479 326.527 27.725C327.077 27.8287 327.285 27.4846 327.285 27.2096V25.3537C324.225 26.0059 323.571 23.875 323.571 23.875C323.056 22.6022 322.335 22.2596 322.335 22.2596C321.338 21.5713 322.404 21.6059 322.404 21.6059C323.504 21.675 324.087 22.7405 324.087 22.7405C325.085 24.425 326.665 23.9442 327.285 23.6676C327.388 22.9463 327.662 22.4655 327.971 22.1905C325.531 21.9155 322.954 20.9537 322.954 16.7596C322.954 15.5559 323.365 14.5942 324.087 13.8037C323.985 13.5287 323.606 12.3942 324.19 10.8809C324.19 10.8809 325.118 10.5713 327.215 12.0155C328.112 11.7699 329.036 11.6431 329.965 11.6383C330.893 11.6383 331.856 11.775 332.715 12.0155C334.813 10.6059 335.74 10.8809 335.74 10.8809C336.325 12.3942 335.946 13.5287 335.844 13.8037C336.567 14.558 336.979 15.5559 336.979 16.758C336.979 20.9867 334.4 21.9155 331.96 22.1905C332.337 22.5346 332.715 23.1867 332.715 24.2176V27.2442C332.715 27.5537 332.921 27.8963 333.471 27.7596C337.838 26.2463 341 22.1213 341 17.275C341 11.1905 336.085 6.27502 330 6.27502Z" fill="#FAFAFA"/>
</g>
<defs>
<clipPath id="clip0_1_7781">
<rect width="22" height="22" fill="white" transform="translate(319 6)"/>
</clipPath>
</defs>
</svg>
