<svg width="33" height="43" viewBox="0 0 33 43" fill="none" xmlns="http://www.w3.org/2000/svg">
<path d="M32.4913 21.001C32.2363 28.3396 26.3881 34.3625 18.7897 35.3974L18.3571 35.4563V35.8928V42.2114H14.6429V35.8928V35.4563L14.2103 35.3974C6.6119 34.3625 0.763693 28.3396 0.508675 21.001H4.22568C4.35815 23.9063 5.64119 26.6613 7.82335 28.7175C10.1293 30.8903 13.2509 32.1062 16.5 32.1062C19.7491 32.1062 22.8707 30.8903 25.1766 28.7175C27.3588 26.6613 28.6419 23.9063 28.7743 21.001H32.4913ZM16.5 1.01172C18.2521 1.01172 19.927 1.66784 21.1574 2.8272C22.3868 3.98561 23.0714 5.55018 23.0714 7.17482V20.501C23.0714 22.1257 22.3868 23.6902 21.1574 24.8486C19.927 26.008 18.2521 26.6641 16.5 26.6641C14.7479 26.6641 13.073 26.008 11.8426 24.8486C10.6132 23.6902 9.92857 22.1257 9.92857 20.501V7.17482C9.92857 5.55018 10.6132 3.98561 11.8426 2.8272C13.073 1.66784 14.7479 1.01172 16.5 1.01172Z" fill="#FAFAFA" stroke="#FAFAFA"/>
</svg>
