<svg width="12" height="10" viewBox="0 0 12 10" fill="none" xmlns="http://www.w3.org/2000/svg">
<mask id="path-1-inside-1_1_7257" fill="white">
<path d="M11.0195 5.32996C10.9216 5.23872 10.8676 5.12144 10.8676 5C10.8676 4.87856 10.9216 4.76128 11.0195 4.67004L11.8013 3.95014C11.8874 3.87149 11.9409 3.77252 11.9541 3.66743C11.9672 3.56235 11.9394 3.45655 11.8746 3.36522L10.6531 1.63546C10.5889 1.54423 10.4912 1.47192 10.3739 1.42883C10.2565 1.38574 10.1256 1.37407 9.99963 1.39549L8.85148 1.58546C8.70538 1.61018 8.55329 1.59026 8.4239 1.52947C8.29451 1.46869 8.19678 1.37124 8.14914 1.25551L7.7766 0.340634C7.73563 0.241337 7.65758 0.155091 7.55346 0.0940882C7.44935 0.033085 7.32445 0.000409342 7.19642 0.000679887H4.75353C4.62035 -0.00501036 4.48856 0.0251397 4.37828 0.0865252C4.268 0.147911 4.1853 0.237157 4.14281 0.340634L3.8008 1.25551C3.75317 1.37124 3.65543 1.46869 3.52604 1.52947C3.39666 1.59026 3.24457 1.61018 3.09847 1.58546L1.91978 1.39549C1.80041 1.38168 1.67872 1.3971 1.57004 1.4398C1.46136 1.48251 1.37055 1.55058 1.30905 1.63546L0.0876087 3.36522C0.0211377 3.45553 -0.00874978 3.56074 0.00221909 3.66579C0.013188 3.77085 0.0644515 3.87037 0.148681 3.95014L0.924298 4.67004C1.02221 4.76128 1.07621 4.87856 1.07621 5C1.07621 5.12144 1.02221 5.23872 0.924298 5.32996L0.148681 6.04986C0.0644515 6.12963 0.013188 6.22915 0.00221909 6.33421C-0.00874978 6.43926 0.0211377 6.54447 0.0876087 6.63478L1.30905 8.36454C1.37324 8.45577 1.47097 8.52808 1.58831 8.57117C1.70565 8.61426 1.83661 8.62593 1.96253 8.60451L3.11068 8.41454C3.25678 8.38982 3.40887 8.40974 3.53826 8.47053C3.66765 8.53131 3.76538 8.62877 3.81302 8.74449L4.18556 9.65937C4.22805 9.76284 4.31075 9.85209 4.42103 9.91348C4.53131 9.97486 4.6631 10.005 4.79628 9.99932H7.23917C7.3672 9.99959 7.4921 9.96692 7.59621 9.90591C7.70033 9.84491 7.77838 9.75866 7.81935 9.65937L8.1919 8.74449C8.23953 8.62877 8.33726 8.53131 8.46665 8.47053C8.59604 8.40974 8.74813 8.38982 8.89423 8.41454L10.0424 8.60451C10.1683 8.62593 10.2993 8.61426 10.4166 8.57117C10.5339 8.52808 10.6317 8.45577 10.6959 8.36454L11.9173 6.63478C11.9821 6.54345 12.01 6.43765 11.9968 6.33257C11.9836 6.22748 11.9302 6.12851 11.844 6.04986L11.0195 5.32996ZM10.1096 5.99986L10.5981 6.4498L9.81642 7.55965L9.09576 7.43967C8.65591 7.36607 8.19835 7.42723 7.80995 7.61155C7.42154 7.79586 7.12933 8.0905 6.98877 8.43953L6.7567 8.99946H5.19325L4.97339 8.42953C4.83283 8.0805 4.54062 7.78586 4.15221 7.60155C3.76381 7.41723 3.30625 7.35607 2.8664 7.42967L2.14574 7.54965L1.3518 6.4448L1.84038 5.99486C2.14083 5.71989 2.30693 5.36392 2.30693 4.995C2.30693 4.62608 2.14083 4.27011 1.84038 3.99514L1.3518 3.5452L2.13353 2.44535L2.85418 2.56533C3.29404 2.63893 3.75159 2.57777 4.14 2.39345C4.5284 2.20914 4.82062 1.9145 4.96117 1.56547L5.19325 1.00054H6.7567L6.98877 1.57047C7.12933 1.9195 7.42154 2.21414 7.80995 2.39845C8.19835 2.58277 8.65591 2.64393 9.09576 2.57033L9.81642 2.45035L10.5981 3.5602L10.1096 4.01013C9.81249 4.28448 9.64845 4.63839 9.64845 5.005C9.64845 5.37161 9.81249 5.72552 10.1096 5.99986ZM5.97497 3.00027C5.49182 3.00027 5.01951 3.11755 4.61778 3.33729C4.21604 3.55702 3.90293 3.86933 3.71804 4.23474C3.53314 4.60014 3.48476 5.00222 3.57902 5.39013C3.67328 5.77804 3.90594 6.13435 4.24759 6.41402C4.58923 6.69369 5.02451 6.88414 5.49839 6.9613C5.97226 7.03846 6.46345 6.99886 6.90983 6.84751C7.35621 6.69615 7.73773 6.43984 8.00616 6.11099C8.27459 5.78214 8.41786 5.39551 8.41786 5C8.41786 4.46964 8.16049 3.961 7.70236 3.58598C7.24423 3.21096 6.62287 3.00027 5.97497 3.00027ZM5.97497 5.99986C5.73339 5.99986 5.49724 5.94122 5.29637 5.83136C5.09551 5.72149 4.93895 5.56533 4.84651 5.38263C4.75406 5.19993 4.72987 4.99889 4.777 4.80494C4.82413 4.61098 4.94046 4.43282 5.11128 4.29299C5.2821 4.15316 5.49974 4.05793 5.73668 4.01935C5.97362 3.98077 6.21921 4.00057 6.4424 4.07625C6.66559 4.15192 6.85635 4.28008 6.99057 4.44451C7.12478 4.60893 7.19642 4.80225 7.19642 5C7.19642 5.26518 7.06773 5.5195 6.83866 5.70701C6.6096 5.89452 6.29892 5.99986 5.97497 5.99986Z"/>
</mask>
<path d="M11.0195 5.32996C10.9216 5.23872 10.8676 5.12144 10.8676 5C10.8676 4.87856 10.9216 4.76128 11.0195 4.67004L11.8013 3.95014C11.8874 3.87149 11.9409 3.77252 11.9541 3.66743C11.9672 3.56235 11.9394 3.45655 11.8746 3.36522L10.6531 1.63546C10.5889 1.54423 10.4912 1.47192 10.3739 1.42883C10.2565 1.38574 10.1256 1.37407 9.99963 1.39549L8.85148 1.58546C8.70538 1.61018 8.55329 1.59026 8.4239 1.52947C8.29451 1.46869 8.19678 1.37124 8.14914 1.25551L7.7766 0.340634C7.73563 0.241337 7.65758 0.155091 7.55346 0.0940882C7.44935 0.033085 7.32445 0.000409342 7.19642 0.000679887H4.75353C4.62035 -0.00501036 4.48856 0.0251397 4.37828 0.0865252C4.268 0.147911 4.1853 0.237157 4.14281 0.340634L3.8008 1.25551C3.75317 1.37124 3.65543 1.46869 3.52604 1.52947C3.39666 1.59026 3.24457 1.61018 3.09847 1.58546L1.91978 1.39549C1.80041 1.38168 1.67872 1.3971 1.57004 1.4398C1.46136 1.48251 1.37055 1.55058 1.30905 1.63546L0.0876087 3.36522C0.0211377 3.45553 -0.00874978 3.56074 0.00221909 3.66579C0.013188 3.77085 0.0644515 3.87037 0.148681 3.95014L0.924298 4.67004C1.02221 4.76128 1.07621 4.87856 1.07621 5C1.07621 5.12144 1.02221 5.23872 0.924298 5.32996L0.148681 6.04986C0.0644515 6.12963 0.013188 6.22915 0.00221909 6.33421C-0.00874978 6.43926 0.0211377 6.54447 0.0876087 6.63478L1.30905 8.36454C1.37324 8.45577 1.47097 8.52808 1.58831 8.57117C1.70565 8.61426 1.83661 8.62593 1.96253 8.60451L3.11068 8.41454C3.25678 8.38982 3.40887 8.40974 3.53826 8.47053C3.66765 8.53131 3.76538 8.62877 3.81302 8.74449L4.18556 9.65937C4.22805 9.76284 4.31075 9.85209 4.42103 9.91348C4.53131 9.97486 4.6631 10.005 4.79628 9.99932H7.23917C7.3672 9.99959 7.4921 9.96692 7.59621 9.90591C7.70033 9.84491 7.77838 9.75866 7.81935 9.65937L8.1919 8.74449C8.23953 8.62877 8.33726 8.53131 8.46665 8.47053C8.59604 8.40974 8.74813 8.38982 8.89423 8.41454L10.0424 8.60451C10.1683 8.62593 10.2993 8.61426 10.4166 8.57117C10.5339 8.52808 10.6317 8.45577 10.6959 8.36454L11.9173 6.63478C11.9821 6.54345 12.01 6.43765 11.9968 6.33257C11.9836 6.22748 11.9302 6.12851 11.844 6.04986L11.0195 5.32996ZM10.1096 5.99986L10.5981 6.4498L9.81642 7.55965L9.09576 7.43967C8.65591 7.36607 8.19835 7.42723 7.80995 7.61155C7.42154 7.79586 7.12933 8.0905 6.98877 8.43953L6.7567 8.99946H5.19325L4.97339 8.42953C4.83283 8.0805 4.54062 7.78586 4.15221 7.60155C3.76381 7.41723 3.30625 7.35607 2.8664 7.42967L2.14574 7.54965L1.3518 6.4448L1.84038 5.99486C2.14083 5.71989 2.30693 5.36392 2.30693 4.995C2.30693 4.62608 2.14083 4.27011 1.84038 3.99514L1.3518 3.5452L2.13353 2.44535L2.85418 2.56533C3.29404 2.63893 3.75159 2.57777 4.14 2.39345C4.5284 2.20914 4.82062 1.9145 4.96117 1.56547L5.19325 1.00054H6.7567L6.98877 1.57047C7.12933 1.9195 7.42154 2.21414 7.80995 2.39845C8.19835 2.58277 8.65591 2.64393 9.09576 2.57033L9.81642 2.45035L10.5981 3.5602L10.1096 4.01013C9.81249 4.28448 9.64845 4.63839 9.64845 5.005C9.64845 5.37161 9.81249 5.72552 10.1096 5.99986ZM5.97497 3.00027C5.49182 3.00027 5.01951 3.11755 4.61778 3.33729C4.21604 3.55702 3.90293 3.86933 3.71804 4.23474C3.53314 4.60014 3.48476 5.00222 3.57902 5.39013C3.67328 5.77804 3.90594 6.13435 4.24759 6.41402C4.58923 6.69369 5.02451 6.88414 5.49839 6.9613C5.97226 7.03846 6.46345 6.99886 6.90983 6.84751C7.35621 6.69615 7.73773 6.43984 8.00616 6.11099C8.27459 5.78214 8.41786 5.39551 8.41786 5C8.41786 4.46964 8.16049 3.961 7.70236 3.58598C7.24423 3.21096 6.62287 3.00027 5.97497 3.00027ZM5.97497 5.99986C5.73339 5.99986 5.49724 5.94122 5.29637 5.83136C5.09551 5.72149 4.93895 5.56533 4.84651 5.38263C4.75406 5.19993 4.72987 4.99889 4.777 4.80494C4.82413 4.61098 4.94046 4.43282 5.11128 4.29299C5.2821 4.15316 5.49974 4.05793 5.73668 4.01935C5.97362 3.98077 6.21921 4.00057 6.4424 4.07625C6.66559 4.15192 6.85635 4.28008 6.99057 4.44451C7.12478 4.60893 7.19642 4.80225 7.19642 5C7.19642 5.26518 7.06773 5.5195 6.83866 5.70701C6.6096 5.89452 6.29892 5.99986 5.97497 5.99986Z" fill="white" stroke="white" stroke-width="2" mask="url(#path-1-inside-1_1_7257)"/>
</svg>
