<svg width="13" height="12" viewBox="0 0 13 12" fill="none" xmlns="http://www.w3.org/2000/svg">
<path d="M10.7111 9.56977C10.62 9.66903 10.5246 9.76513 10.4254 9.85745C9.90043 10.3524 9.28024 10.7454 8.59978 11.0162L10.7111 9.56977ZM10.7111 9.56977H10.841C9.76659 10.7473 8.16776 11.5 6.37306 11.5C3.12176 11.5 0.532628 9.04084 0.500301 6.05609L10.7111 9.56977ZM4.14646 11.0162L4.14639 11.0162C3.4655 10.7453 2.84495 10.3519 2.31975 9.85656C1.79372 9.36275 1.37262 8.77595 1.08122 8.12783C0.778073 7.45446 0.625625 6.73848 0.625625 6.00001C0.625625 5.26073 0.779882 4.54509 1.08091 3.87287L1.08106 3.87255C1.3724 3.22316 1.79076 2.64045 2.32018 2.14305C2.84885 1.64637 3.46354 1.25526 4.14646 0.983785L4.14646 11.0162ZM4.14646 11.0162C4.85151 11.2966 5.60116 11.4395 6.37263 11.4395M4.14646 11.0162L6.37263 11.4395M10.4259 2.14305L10.4265 2.14358C10.5264 2.2377 10.6204 2.33365 10.7098 2.43025H10.8414C9.76449 1.24939 8.15834 0.495569 6.358 0.50002L6.35795 0.50002C3.05912 0.507805 0.468069 3.02284 0.5003 6.056L10.4259 2.14305ZM10.4259 2.14305C9.89734 1.64645 9.28277 1.25538 8.59998 0.983915C7.89382 0.70163 7.14382 0.560484 6.37306 0.560484C5.60146 0.560484 4.85169 0.703323 4.14654 0.983753L10.4259 2.14305ZM6.37263 11.4395C7.13686 11.4408 7.89418 11.297 8.59972 11.0162L6.37263 11.4395ZM10.661 5.99769H11.161V5.49769V5.2012L12.235 6.00001L11.161 6.79882V6.50234V6.00234H10.661H6.39332V5.99769H10.661Z" fill="white" stroke="white"/>
</svg>
